# xmcd
#
# Track frame offsets:
#	182
#	19692
#	35170
#	63375
#	84012
#	102177
#	121480
#	143695
#	165532
#	188545
#	204880
#	223095
#	241257
#	259867
#	280097
#	298122
#
# Disc length: 4228 seconds
#
# Revision: 2
# Processed by: cddbd v1.5.1PL2 Copyright (c) Steve Scherf et al.
# Submitted via: EasyCDDAExtractor 8.2.2.1
#
DISCID=de108210
DTITLE=Various Artist - Best Of Motorcity Vol 1
DYEAR=2002
DGENRE=R and B
TTITLE0=Francis Nero - Footsteps Following Me
TTITLE1=Contours - Head Over Heels
TTITLE2=Mary Wells - Walk The City Streets
TTITLE3=Pat Lewis - In The Name Of Love
TTITLE4=Karen Pree - Girl With A Broken Heart
TTITLE5=Marv Johnson - Better Love Next Time
TTITLE6=Miracles - Fun Time
TTITLE7=Edwin Starr - In The Nick Of Time
TTITLE8=Vermettya Royster - Back Where I Belong
TTITLE9=Billy Preston - You Are The Rhythm In My Life
TTITLE10=Three Onces Of Love - Electricity
TTITLE11=Billy Griffin - Technicolour
TTITLE12=Jean Scherrie and Lynda, Formerly Of The Supremes With The Originals - 
TTITLE12=Back By Popular Demand
TTITLE13=Ronnie Mcneir - Ten Times A Day
TTITLE14=PJ - Down For The Third Time
TTITLE15=Linda Griner - Bitter End
EXTD=Hot Productions Miami FL  HTCD7701
EXTT0=
EXTT1=
EXTT2=
EXTT3=
EXTT4=
EXTT5=
EXTT6=
EXTT7=
EXTT8=
EXTT9=
EXTT10=
EXTT11=
EXTT12=
EXTT13=
EXTT14=
EXTT15=
PLAYORDER=
